<svg width="16" height="17" viewBox="0 0 16 17" fill="none" xmlns="http://www.w3.org/2000/svg">
<path fill-rule="evenodd" clip-rule="evenodd" d="M9.25 2.16602C9.25 1.7518 9.58579 1.41602 10 1.41602H14C14.4142 1.41602 14.75 1.7518 14.75 2.16602V6.16602C14.75 6.58023 14.4142 6.91602 14 6.91602C13.5858 6.91602 13.25 6.58023 13.25 6.16602V3.97668L7.197 10.0297C6.9041 10.3226 6.42923 10.3226 6.13634 10.0297C5.84344 9.73679 5.84344 9.26191 6.13634 8.96902L12.1893 2.91602H10C9.58579 2.91602 9.25 2.58023 9.25 2.16602ZM3.33333 4.91602C3.17862 4.91602 3.03025 4.97747 2.92085 5.08687C2.81146 5.19627 2.75 5.34464 2.75 5.49935V12.8327C2.75 12.9874 2.81146 13.1358 2.92085 13.2452C3.03025 13.3546 3.17862 13.416 3.33333 13.416H10.6667C10.8214 13.416 10.9697 13.3546 11.0791 13.2452C11.1885 13.1358 11.25 12.9874 11.25 12.8327V8.83268C11.25 8.41847 11.5858 8.08268 12 8.08268C12.4142 8.08268 12.75 8.41847 12.75 8.83268V12.8327C12.75 13.3852 12.5305 13.9151 12.1398 14.3058C11.7491 14.6965 11.2192 14.916 10.6667 14.916H3.33333C2.7808 14.916 2.25089 14.6965 1.86019 14.3058C1.46949 13.9151 1.25 13.3852 1.25 12.8327V5.49935C1.25 4.94681 1.46949 4.41691 1.86019 4.02621C2.2509 3.63551 2.7808 3.41602 3.33333 3.41602H7.33333C7.74755 3.41602 8.08333 3.7518 8.08333 4.16602C8.08333 4.58023 7.74755 4.91602 7.33333 4.91602H3.33333Z" fill="#306582"/>
</svg>
