<svg width="21" height="22" viewBox="0 0 21 22" fill="none" xmlns="http://www.w3.org/2000/svg">
<path d="M18.75 0.5C19.9688 0.5 21 1.53125 21 2.75V19.25C21 20.5156 19.9688 21.5 18.75 21.5H12.2812V14.375H15L15.5156 11H12.2812V8.84375C12.2812 7.90625 12.75 7.01562 14.2031 7.01562H15.6562V4.15625C15.6562 4.15625 14.3438 3.92188 13.0312 3.92188C10.4062 3.92188 8.67188 5.5625 8.67188 8.46875V11H5.71875V14.375H8.67188V21.5H2.25C0.984375 21.5 0 20.5156 0 19.25V2.75C0 1.53125 0.984375 0.5 2.25 0.5H18.75Z" fill="white"/>
</svg>
