<svg width="320" height="107" viewBox="0 0 320 107" fill="none" xmlns="http://www.w3.org/2000/svg">
<g clip-path="url(#clip0_2672_56486)">
<path d="M12.8056 49.6588C8.27644 47.5905 5.97156 45.9848 5.97156 42.7038C5.97156 40.1622 7.75673 37.5862 11.7532 37.5862C16.3055 37.5862 17.9017 40.8093 18.8476 43.9746V44.0904L20.8226 43.8134V43.675C20.6216 42.2657 20.4447 41.099 20.2909 40.0816C20.1056 38.8144 19.9481 37.7708 19.8277 36.8467V36.7426H19.7351C17.433 36.0512 15.0469 35.6628 12.6398 35.5876C5.80573 35.5876 1.00514 39.2842 1.00514 44.5638C1.00514 50.0163 6.34953 52.5235 10.2636 54.3491C14.1776 56.1748 17.1569 57.9425 17.1569 61.3965C17.1569 64.8504 14.7918 66.9648 10.9259 66.9648C5.01366 66.9648 2.64857 61.3965 1.95099 59.0169V58.8784L0 59.34V59.4667C0.309936 62.0788 0.811795 64.6657 1.50169 67.2074V67.2671H1.57488L1.9056 67.4056C2.72504 67.7634 3.57073 68.0608 4.43559 68.2953C6.20507 68.8106 8.04017 69.0791 9.88652 69.0928C17.1699 69.0928 22.4679 65.0604 22.4679 59.5382C22.4679 54.016 17.1235 51.5903 12.8334 49.6606" fill="#522367"/>
<path d="M37.0323 64.9658C36.0171 65.4172 34.9189 65.6635 33.8038 65.6899C32.4087 65.6899 30.7652 64.916 30.7652 61.2421V48.9532H36.3579C36.5553 48.8515 36.7249 48.7051 36.8524 48.5262C36.9799 48.3473 37.0616 48.1411 37.0907 47.9249C37.1215 47.7176 37.1042 47.5062 37.04 47.3062C36.9759 47.1063 36.8665 46.9231 36.7201 46.77H30.7412V39.9535L29.7833 39.7725L25.6098 43.2346V46.7003H23.2447L21.6486 48.2951L22.0034 49.0111H25.633V62.9093C25.633 66.8376 27.6312 68.9049 31.4387 68.9049C32.2445 68.8454 33.0293 68.6251 33.7445 68.2577L37.8355 66.5018L37.2445 64.9079L37.0323 64.9658Z" fill="#522367"/>
<path d="M47.7231 58.5545L49.0201 58.0114C50.0484 57.5842 51.3018 57.0637 52.1179 56.6944V64.0649C51.0205 64.9355 49.6737 65.4523 48.2632 65.5438C47.7814 65.5566 47.302 65.4732 46.8543 65.2989C46.4066 65.1246 46 64.863 45.6592 64.53C45.3184 64.1971 45.0506 63.7997 44.8722 63.3623C44.6938 62.9249 44.6085 62.4565 44.6215 61.9858C44.6215 60.2298 45.8036 59.398 47.7194 58.5201M60.8566 64.7012L60.7149 64.7817C60.1459 65.0844 59.5099 65.2469 58.8621 65.2551C57.68 65.2551 57.088 64.2848 57.088 62.5171V53.6469C57.088 50.6319 56.3191 48.7718 54.4941 47.4196C53.096 46.5089 51.4448 46.0408 49.7649 46.0791C46.7907 46.7758 43.9543 47.9468 41.3699 49.5448C40.1878 50.2689 39.4782 50.8962 39.4782 51.7171C39.579 52.3561 39.909 52.9394 40.4092 53.3627C40.9095 53.7859 41.5474 54.0217 42.2092 54.0279C42.6371 54.0674 43.0652 53.9548 43.4149 53.7107C43.7646 53.4666 44.0125 53.1075 44.1129 52.6992C44.3523 51.5161 44.8713 50.404 45.6285 49.4516C45.9211 49.1589 46.2733 48.9296 46.6624 48.7783C47.0515 48.6271 47.4687 48.5574 47.8871 48.5736C50.5356 48.5736 52.1198 50.5495 52.1198 53.8415V54.6941C50.7598 55.6418 46.491 57.0049 43.6655 57.8475C40.5908 58.8178 39.1604 60.3819 39.1604 62.7687C39.2026 63.6184 39.4162 64.4517 39.789 65.2205C40.1617 65.9893 40.6863 66.6786 41.3325 67.2487C41.9788 67.8189 42.7339 68.2587 43.5546 68.5428C44.3753 68.827 45.2454 68.9499 46.1149 68.9046C47.5221 68.9046 49.7927 67.4953 51.7909 66.2589L52.3588 65.8968C52.6086 66.6706 53.0547 67.3699 53.6557 67.9298C54.4511 68.549 55.4296 68.9014 56.4461 68.9345L61.4829 66.2888L60.8566 64.7012Z" fill="#522367"/>
<path d="M92.8807 55.0654C90.6814 54.2572 88.4229 53.1475 88.4229 51.0566C88.4189 50.6376 88.503 50.2222 88.67 49.8363C88.837 49.4503 89.0833 49.1019 89.3937 48.8128C89.7041 48.5236 90.0719 48.2997 90.4745 48.1551C90.877 48.0105 91.3056 47.9481 91.7338 47.9719C94.8085 47.9719 96.464 50.5832 97.2561 52.7546V52.8814L99.0061 52.4768V52.3501C98.7628 50.5534 98.3674 48.7797 97.824 47.0469V46.989C96.2182 46.3678 94.5018 46.0654 92.7751 46.0992C87.7614 46.0992 84.1077 48.8716 84.1077 52.684C84.1077 56.7508 88.3293 58.4606 91.1196 59.6155C94.1823 60.8401 95.3764 62.0304 95.3764 63.8207C95.3586 64.2655 95.2494 64.7023 95.0551 65.105C94.8608 65.5076 94.5856 65.8679 94.2457 66.1644C93.9059 66.4609 93.5084 66.6875 93.077 66.8306C92.6456 66.9738 92.1891 67.0306 91.7348 66.9977C88.258 66.9977 85.9642 63.7393 85.0647 60.9442V60.8284L83.3379 61.0592V61.1859C83.3631 63.2265 83.6815 65.2536 84.2837 67.2077C86.2421 68.3202 88.4749 68.8874 90.7398 68.8478C95.3987 68.8478 100.117 66.4682 100.117 61.9163C100.117 58.3583 97.2672 56.5761 93.0225 54.9849" fill="#522367"/>
<path d="M123.635 62.667V46.2969L123.067 46.3874C122.181 46.5259 120.951 46.7223 119.52 46.8146C117.912 46.9956 115.973 47.1495 114.471 47.1957H114.326V48.6439L116.371 48.9561C118.015 49.2331 118.452 49.4187 118.452 51.9367V63.3142C116.972 64.6349 115.052 65.3862 113.048 65.4286C110.979 65.4286 108.531 64.5234 108.531 60.253V53.5868C108.531 50.398 108.531 48.0872 108.697 46.4815V46.3005L108.26 46.3702C107.29 46.5087 105.812 46.7322 104.405 46.8671H103.849C102.537 46.9938 101.295 47.1214 100.231 47.1558H100.152V48.5769L101.748 48.9C103.037 49.1661 103.451 49.3734 103.451 51.8344V61.4922C103.451 66.1708 106.005 68.8518 110.463 68.8518C112.023 68.8092 113.544 68.3669 114.873 67.5692C116.108 66.9219 117.294 66.1884 118.421 65.3743V68.5277L118.917 68.9088H118.989C120.088 68.62 121.59 68.2616 123.044 67.9267C124.782 67.5457 126.237 67.2931 127.372 67.1528H127.502V65.5435H125.941C123.966 65.405 123.576 65.1507 123.576 62.7132" fill="#522367"/>
<path d="M147.451 48.7584C147.342 47.9645 146.923 47.2425 146.282 46.7431C145.641 46.2437 144.827 46.0056 144.011 46.0783C141.953 46.0783 139.754 47.7763 137.507 51.1271V45.9163L137.306 45.986C134.682 46.9055 131.968 47.5598 129.207 47.9383H129.088V49.3594H129.207C132.104 49.7287 132.376 49.8563 132.376 52.8251V63.0259C132.376 66.1332 131.974 66.3531 128.829 66.6464H128.699V68.2295H142.061V66.7813H141.895C137.65 66.4808 137.531 66.192 137.531 63.1608V54.2C138.551 51.8892 140.109 50.422 141.505 50.422C141.943 50.4167 142.378 50.4968 142.784 50.6575C143.19 50.8182 143.559 51.0563 143.87 51.3579C144.096 51.5369 144.37 51.6484 144.66 51.679C144.949 51.7097 145.241 51.6582 145.501 51.5308C146.083 51.3188 146.587 50.9414 146.947 50.4473C147.308 49.9532 147.508 49.3649 147.524 48.7584" fill="#522367"/>
<path d="M160.161 53.7834C157.182 53.8875 154.343 53.9337 151.506 53.9337C152.247 50.4679 154.32 48.1572 156.815 48.1572C157.398 48.1517 157.977 48.2638 158.514 48.4865C159.051 48.7092 159.535 49.0377 159.937 49.4515C160.388 49.9113 160.74 50.4551 160.971 51.0505C161.203 51.6459 161.309 52.2807 161.285 52.9172C161.285 53.4947 161.131 53.749 160.103 53.749M165.234 62.7098C163.531 64.1776 161.344 64.9978 159.073 65.0206C155.231 65.0206 151.317 62.2826 151.151 56.1829C157.45 55.9865 164.158 55.5014 165.127 55.3511C166.31 55.1891 166.582 54.589 166.582 53.6069C166.582 49.552 162.609 45.9939 158.08 45.9939H158.021C154.926 46.1308 152.002 47.4205 149.85 49.5981C148.663 50.727 147.721 52.0784 147.081 53.5715C146.441 55.0646 146.116 56.6686 146.125 58.2873C146.085 59.6925 146.341 61.0907 146.877 62.3952C147.413 63.6996 148.218 64.8826 149.241 65.8706C150.264 66.8586 151.485 67.6306 152.826 68.1386C154.168 68.6467 155.602 68.8799 157.039 68.8239C157.866 68.8239 162.219 68.5931 166.262 63.9489L166.345 63.8584L165.352 62.5758L165.234 62.7098Z" fill="#522367"/>
<path d="M84.5559 48.2962V46.667H74.3164V48.2962H74.4934C76.2433 48.5162 77.0354 48.7696 77.3198 49.2204C77.6042 49.6711 77.4736 50.006 77.1781 50.8378C76.0784 53.8419 73.9616 59.098 72.4479 62.3909L67.7177 50.7147C67.387 49.8829 67.3156 49.4322 67.4926 49.1317C67.6695 48.8312 68.3439 48.5424 69.7511 48.3234H69.8808L69.7641 46.667H57.9396V48.2962H58.0693C60.9068 48.6311 61.4154 49.2086 62.5623 51.762C63.9343 54.6158 66.2512 60.1262 68.9359 66.8731C69.257 67.5483 69.2952 68.3194 69.0425 69.0218C68.5923 70.0754 68.0628 71.095 67.4583 72.0721C65.8326 74.9474 63.9162 77.6564 61.7378 80.1585L61.4895 80.4129H66.9053V80.3224C67.7214 78.2659 68.6552 76.1868 69.9559 73.3094C70.8545 71.3181 71.8596 69.0553 73.1251 66.1933L73.7736 64.6917C76.8594 57.6561 78.4204 54.0746 79.709 51.7638C81.1755 49.0601 81.66 48.7135 84.4392 48.298L84.5559 48.2962Z" fill="#522367"/>
<path d="M172.871 49.3357L172.529 46.7244L171.653 49.3357H171.05L170.164 46.7244L169.833 49.3357H169.207L169.703 46.147H170.554L171.359 48.7121L172.151 46.147H173.026L173.511 49.3357H172.871ZM168.059 46.586V49.3357H167.42V46.586H166.427V46.147H169.088V46.586H168.059Z" fill="#522367"/>
<path d="M199.303 68.4932H197.96L195.637 60.9617C195.53 60.6382 195.409 60.201 195.274 59.65C195.183 59.3489 195.113 59.0422 195.064 58.7319C194.93 59.4821 194.746 60.2228 194.513 60.9494L192.257 68.4418H190.91L187.848 57.196H189.258L191.088 64.1394C191.318 65.0043 191.502 65.8804 191.639 66.764C191.773 65.8305 191.984 64.9091 192.27 64.0089L194.325 57.1724H195.749L197.911 64.0747C198.184 64.9562 198.395 65.8551 198.542 66.765C198.683 65.8816 198.871 65.0067 199.106 64.1405L200.919 57.2125H202.343L199.303 68.4932Z" fill="#522367"/>
<path d="M211.424 64.2686C211.494 65.4342 211.11 66.5823 210.35 67.4833C209.98 67.8749 209.526 68.1816 209.021 68.3814C208.515 68.5812 207.97 68.6691 207.426 68.6388C206.704 68.6538 205.993 68.4719 205.371 68.1135C204.78 67.7461 204.313 67.2165 204.028 66.591C203.693 65.8614 203.528 65.0681 203.545 64.2686C203.475 63.1065 203.85 61.9605 204.598 61.0539C204.971 60.6665 205.427 60.3637 205.932 60.1665C206.438 59.9694 206.982 59.8828 207.526 59.9128C208.063 59.8896 208.599 59.9822 209.096 60.1841C209.592 60.3859 210.038 60.692 210.4 61.0806C211.134 61.9823 211.499 63.1185 211.424 64.2686ZM204.844 64.2686C204.784 65.1366 205.02 65.9995 205.515 66.7226C205.743 67.0071 206.038 67.2334 206.375 67.382C206.711 67.5307 207.08 67.5972 207.449 67.5758C207.819 67.5965 208.188 67.5312 208.527 67.3851C208.865 67.2391 209.163 67.0166 209.397 66.7359C209.89 66.0071 210.126 65.1406 210.068 64.2686C210.125 63.4051 209.889 62.5474 209.397 61.828C209.163 61.5442 208.863 61.3196 208.522 61.1734C208.181 61.0272 207.808 60.9636 207.437 60.9881C207.07 60.9632 206.703 61.0249 206.367 61.1681C206.03 61.3112 205.733 61.5316 205.503 61.8106C205.021 62.5384 204.8 63.4009 204.871 64.2645L204.844 64.2686Z" fill="#522367"/>
<path d="M217.647 59.9117C217.994 59.9059 218.341 59.9366 218.681 60.0032L218.493 61.1844C218.185 61.1113 217.87 61.0716 217.553 61.0662C217.211 61.0645 216.873 61.1375 216.564 61.2798C216.254 61.422 215.981 61.6301 215.765 61.8886C215.259 62.4646 214.991 63.2037 215.012 63.9622V68.4856H213.672V60.0556H214.746L214.893 61.6172C215.171 61.0986 215.567 60.6496 216.051 60.3054C216.526 60.0086 217.087 59.8705 217.649 59.9117H217.647Z" fill="#522367"/>
<path d="M223.076 67.5882C223.299 67.6087 223.524 67.6087 223.747 67.5882C223.92 67.5701 224.091 67.5357 224.257 67.4854V68.4692C224.06 68.5503 223.852 68.6033 223.64 68.6265C223.392 68.6722 223.14 68.6942 222.888 68.6923C221.222 68.6923 220.39 67.839 220.39 66.0677V61.055H219.154V60.4381L220.39 59.9128L220.94 58.1147H221.692V60.0567H224.204V61.0539H221.692V66.0667C221.661 66.4884 221.796 66.9059 222.068 67.2345C222.198 67.3629 222.356 67.4613 222.53 67.5226C222.705 67.5839 222.891 67.6067 223.075 67.5892L223.076 67.5882Z" fill="#522367"/>
<path d="M231.884 68.4946V63.0357C231.927 62.4826 231.754 61.9341 231.4 61.5008C231.2 61.3163 230.963 61.1751 230.704 61.0865C230.444 60.9979 230.169 60.9639 229.895 60.9868C229.53 60.9579 229.163 61.0074 228.82 61.1317C228.476 61.256 228.165 61.4521 227.908 61.7064C227.431 62.4061 227.213 63.2439 227.29 64.0812V68.4905H225.947V56.5271H227.29V60.1489C227.292 60.5088 227.269 60.8684 227.22 61.2253H227.301C227.568 60.8134 227.951 60.4853 228.403 60.2805C228.907 60.036 229.465 59.9143 230.028 59.9258C230.883 59.8644 231.729 60.1277 232.391 60.6609C232.682 60.9749 232.903 61.3448 233.039 61.747C233.176 62.1492 233.225 62.5748 233.183 62.9966V68.4946H231.884Z" fill="#522367"/>
<path d="M245.931 67.3791C245.637 67.8055 245.235 68.1504 244.765 68.3803C244.294 68.6101 243.77 68.7171 243.245 68.6909C242.737 68.726 242.228 68.6416 241.761 68.4448C241.293 68.2481 240.881 67.9447 240.559 67.5601C239.872 66.628 239.54 65.4911 239.619 64.3454C239.542 63.1957 239.874 62.0554 240.559 61.1173C240.878 60.7276 241.289 60.419 241.757 60.218C242.224 60.017 242.735 59.9294 243.245 59.9628C243.77 59.9414 244.291 60.0505 244.761 60.2799C245.231 60.5094 245.634 60.8516 245.931 61.2746H246.036V56.5271H247.379V68.4946H246.318L245.931 67.3791ZM243.312 67.6022C243.67 67.635 244.032 67.5883 244.369 67.4657C244.706 67.343 245.011 67.1476 245.26 66.8939C245.721 66.217 245.934 65.4075 245.864 64.5973V64.3217C245.939 63.4265 245.723 62.5311 245.246 61.7629C245.005 61.4966 244.703 61.2892 244.365 61.1571C244.026 61.025 243.661 60.9719 243.298 61.0022C242.952 60.9872 242.608 61.0604 242.3 61.2145C241.991 61.3685 241.729 61.5983 241.539 61.8812C241.094 62.6227 240.883 63.4767 240.935 64.3351C240.877 65.1905 241.089 66.0428 241.542 66.7767C241.746 67.0443 242.015 67.2579 242.324 67.3978C242.634 67.5377 242.975 67.5995 243.315 67.5776L243.312 67.6022Z" fill="#522367"/>
<path d="M257.372 64.2696C257.447 65.4336 257.068 66.582 256.312 67.4843C255.941 67.8762 255.487 68.1829 254.981 68.3825C254.474 68.5822 253.929 68.6697 253.384 68.6388C252.662 68.6559 251.95 68.4738 251.329 68.1135C250.738 67.7462 250.271 67.2165 249.987 66.591C249.647 65.8625 249.477 65.0691 249.49 64.2686C249.422 63.1055 249.8 61.9593 250.551 61.0539C250.924 60.6665 251.38 60.3637 251.886 60.1665C252.391 59.9694 252.935 59.8828 253.479 59.9128C254.016 59.8896 254.552 59.9822 255.049 60.1841C255.546 60.3859 255.991 60.692 256.353 61.0806C257.086 61.9833 257.449 63.1199 257.372 64.2696ZM250.805 64.2696C250.75 65.1353 250.981 65.9954 251.463 66.7236C251.693 67.0092 251.99 67.2361 252.329 67.3847C252.669 67.5333 253.04 67.5993 253.411 67.5769C253.78 67.5976 254.149 67.5322 254.488 67.3862C254.827 67.2401 255.125 67.0176 255.358 66.7369C255.852 66.0082 256.088 65.1416 256.03 64.2696C256.086 63.4061 255.851 62.5484 255.358 61.8291C255.124 61.5456 254.824 61.3213 254.483 61.1752C254.141 61.029 253.769 60.9652 253.397 60.9891C253.031 60.9642 252.664 61.0259 252.327 61.1691C251.99 61.3123 251.694 61.5327 251.463 61.8116C250.973 62.5363 250.742 63.3991 250.805 64.2655V64.2696Z" fill="#522367"/>
<path d="M259.563 57.7731C259.552 57.6577 259.565 57.5413 259.601 57.4309C259.638 57.3206 259.696 57.2184 259.773 57.1305C259.924 56.9988 260.121 56.9285 260.324 56.9342C260.425 56.9312 260.525 56.9478 260.62 56.9831C260.714 57.0184 260.801 57.0717 260.874 57.1398C260.954 57.224 261.016 57.3233 261.055 57.4317C261.094 57.5401 261.11 57.6553 261.102 57.77C261.111 57.8866 261.096 58.0039 261.056 58.1144C261.017 58.225 260.955 58.3264 260.874 58.4125C260.801 58.4806 260.714 58.5338 260.62 58.5691C260.525 58.6044 260.425 58.621 260.324 58.6181C260.222 58.6218 260.122 58.6055 260.027 58.5701C259.932 58.5348 259.846 58.4812 259.773 58.4125C259.695 58.3258 259.636 58.2243 259.6 58.1142C259.564 58.0042 259.551 57.8881 259.563 57.7731ZM260.973 68.4935H259.63V60.0563H260.973V68.4935Z" fill="#522367"/>
<path d="M269.651 68.4941V63.0351C269.695 62.4821 269.522 61.9336 269.167 61.5003C268.968 61.3158 268.731 61.1746 268.471 61.086C268.212 60.9974 267.936 60.9634 267.663 60.9862C267.3 60.9538 266.933 61.0017 266.592 61.1262C266.25 61.2508 265.941 61.4489 265.689 61.7059C265.198 62.3959 264.974 63.234 265.057 64.0704V68.491H263.715V60.0569H264.789L264.99 61.2114H265.057C265.333 60.7942 265.724 60.4619 266.185 60.2533C266.688 60.0173 267.24 59.9003 267.797 59.9119C268.649 59.8455 269.494 60.1095 270.148 60.647C270.434 60.9663 270.651 61.3393 270.785 61.7432C270.919 62.1471 270.967 62.5734 270.927 62.9961V68.4941H269.651Z" fill="#522367"/>
<path d="M280.705 60.0564V60.8171L279.107 61.0012C279.269 61.2189 279.4 61.4572 279.496 61.7095C279.617 62.0196 279.676 62.3493 279.671 62.681C279.693 63.0733 279.62 63.4651 279.459 63.8251C279.298 64.1852 279.053 64.5034 278.744 64.7545C278.069 65.2737 277.224 65.535 276.367 65.4896C276.124 65.4949 275.88 65.4729 275.642 65.4238C275.415 65.5137 275.217 65.6627 275.07 65.8546C274.924 66.0466 274.834 66.2741 274.81 66.5125C274.804 66.6167 274.829 66.7204 274.881 66.8114C274.934 66.9024 275.011 66.977 275.105 67.0265C275.419 67.1583 275.759 67.2167 276.1 67.1972H277.631C278.394 67.143 279.152 67.347 279.779 67.7749C280.034 67.9721 280.235 68.2269 280.366 68.5172C280.498 68.8076 280.554 69.1248 280.532 69.4414C280.553 69.8647 280.458 70.2859 280.257 70.6617C280.057 71.0375 279.757 71.3544 279.39 71.5797C278.364 72.1298 277.2 72.3847 276.032 72.3148C275.121 72.3677 274.213 72.1529 273.427 71.698C273.133 71.5126 272.894 71.255 272.734 70.951C272.573 70.6471 272.498 70.3073 272.514 69.9657C272.511 69.484 272.687 69.0176 273.011 68.6539C273.389 68.2573 273.888 67.9905 274.434 67.8932C274.21 67.7945 274.016 67.6408 273.87 67.447C273.725 67.2342 273.652 66.9827 273.66 66.7274C273.649 66.4418 273.734 66.1606 273.902 65.9265C274.122 65.6534 274.396 65.4259 274.708 65.2573C274.25 65.0729 273.865 64.7515 273.606 64.3392C273.327 63.8933 273.181 63.3797 273.185 62.8568C273.159 62.464 273.221 62.0704 273.367 61.7033C273.512 61.3362 273.737 61.0044 274.027 60.7308C274.71 60.1946 275.573 59.9276 276.447 59.9824C276.855 59.9792 277.261 60.0276 277.656 60.1263L280.705 60.0564ZM273.818 69.8979C273.81 70.1087 273.861 70.3176 273.965 70.5024C274.069 70.6872 274.223 70.841 274.409 70.9475C274.92 71.202 275.488 71.3282 276.061 71.3145C276.904 71.3683 277.746 71.2056 278.505 70.8426C278.745 70.7133 278.946 70.5234 279.085 70.2926C279.224 70.0619 279.298 69.7988 279.297 69.5308C279.318 69.347 279.287 69.1613 279.21 68.9928C279.132 68.8243 279.009 68.6793 278.854 68.5727C278.343 68.3575 277.785 68.2676 277.23 68.3105H275.659C275.174 68.2879 274.698 68.4368 274.316 68.73C274.151 68.8772 274.02 69.0581 273.934 69.2599C273.848 69.4616 273.808 69.6794 273.818 69.8979ZM274.53 62.7601C274.517 63.0015 274.555 63.2429 274.643 63.4688C274.731 63.6947 274.866 63.9001 275.04 64.0719C275.439 64.3936 275.947 64.5576 276.464 64.5315C276.72 64.5689 276.982 64.548 277.229 64.4704C277.475 64.3928 277.7 64.2606 277.886 64.0841C278.072 63.9076 278.214 63.6916 278.3 63.4528C278.386 63.2141 278.415 62.9591 278.384 62.7077C278.422 62.4509 278.399 62.1889 278.315 61.9425C278.232 61.6962 278.09 61.4723 277.902 61.2888C277.715 61.1053 277.485 60.9672 277.233 60.8854C276.981 60.8037 276.713 60.7807 276.45 60.8182C276.192 60.801 275.932 60.8352 275.688 60.9185C275.443 61.0019 275.218 61.1329 275.027 61.3034C274.845 61.4992 274.707 61.7298 274.621 61.9807C274.536 62.2315 274.505 62.4969 274.53 62.7601Z" fill="#522367"/>
<path d="M290.587 59.9122C290.934 59.9064 291.28 59.9371 291.621 60.0037L291.433 61.1849C291.125 61.1118 290.81 61.0722 290.493 61.0667C290.151 61.065 289.813 61.138 289.503 61.2803C289.194 61.4226 288.921 61.6306 288.704 61.8891C288.199 62.4652 287.931 63.2043 287.952 63.9627V68.4861H286.611V60.0572H287.686L287.847 61.6188C288.124 61.1002 288.52 60.6512 289.004 60.307C289.475 60.013 290.031 59.875 290.589 59.9132L290.587 59.9122Z" fill="#522367"/>
<path d="M293.125 57.773C293.115 57.6576 293.128 57.5413 293.164 57.4309C293.2 57.3206 293.259 57.2184 293.336 57.1305C293.487 56.9988 293.684 56.9285 293.886 56.9342C293.987 56.9312 294.088 56.9479 294.182 56.9832C294.277 57.0185 294.363 57.0717 294.436 57.1398C294.517 57.2239 294.578 57.3233 294.618 57.4317C294.657 57.5401 294.673 57.6552 294.665 57.77C294.674 57.8866 294.658 58.0039 294.619 58.1144C294.58 58.225 294.518 58.3264 294.436 58.4125C294.363 58.4806 294.277 58.5338 294.182 58.5691C294.088 58.6043 293.987 58.621 293.886 58.6181C293.785 58.6218 293.684 58.6054 293.59 58.5701C293.495 58.5348 293.409 58.4812 293.336 58.4125C293.258 58.3258 293.199 58.2242 293.162 58.1142C293.126 58.0042 293.114 57.888 293.125 57.773ZM294.468 68.4935H293.125V60.0563H294.468V68.4935Z" fill="#522367"/>
<path d="M304.366 60.0563V60.817L302.768 61.0011C303.134 61.4861 303.332 62.073 303.332 62.6758C303.348 63.0476 303.28 63.4183 303.131 63.761C302.982 64.1037 302.757 64.4097 302.472 64.6568C301.798 65.1759 300.953 65.4373 300.096 65.3918C299.852 65.3972 299.609 65.3751 299.371 65.3261C299.143 65.416 298.946 65.565 298.799 65.7569C298.652 65.9488 298.562 66.1763 298.538 66.4148C298.531 66.5193 298.555 66.6236 298.608 66.7149C298.66 66.8062 298.739 66.8806 298.834 66.9288C299.147 67.062 299.488 67.1205 299.828 67.0994H301.359C302.122 67.0474 302.88 67.2512 303.508 67.6772C303.76 67.8766 303.959 68.1318 304.09 68.4216C304.221 68.7114 304.279 69.0275 304.26 69.3437C304.278 69.7683 304.18 70.1899 303.977 70.5656C303.774 70.9413 303.472 71.2575 303.103 71.482C302.082 72.0309 300.922 72.2858 299.759 72.217C298.82 72.2811 297.884 72.0661 297.073 71.6002C296.829 71.4324 296.624 71.217 296.47 70.9676C296.316 70.7182 296.217 70.4403 296.179 70.1515C296.142 69.8627 296.166 69.5693 296.25 69.2901C296.334 69.0109 296.477 68.7518 296.67 68.5294C297.027 68.1478 297.496 67.8823 298.012 67.7687C297.826 67.675 297.665 67.5402 297.542 67.3749C297.391 67.1642 297.311 66.9126 297.313 66.6553C297.307 66.3682 297.397 66.0869 297.569 65.8545C297.78 65.5776 298.051 65.3491 298.361 65.1852C297.91 64.9969 297.53 64.6761 297.273 64.2672C296.985 63.8252 296.838 63.3089 296.853 62.7847C296.827 62.3919 296.889 61.9984 297.034 61.6313C297.18 61.2642 297.405 60.9323 297.694 60.6587C298.371 60.1229 299.229 59.8557 300.099 59.9103C300.51 59.9072 300.921 59.9556 301.32 60.0542L304.366 60.0563ZM297.544 69.8978C297.536 70.1086 297.587 70.3175 297.691 70.5023C297.795 70.6871 297.949 70.8409 298.135 70.9474C298.66 71.2023 299.242 71.3199 299.827 71.2887C300.666 71.3441 301.505 71.1813 302.258 70.8168C302.498 70.6876 302.698 70.4976 302.838 70.2669C302.977 70.0361 303.05 69.773 303.05 69.5051C303.069 69.3227 303.04 69.1387 302.964 68.9708C302.889 68.803 302.771 68.6569 302.621 68.5469C302.109 68.3333 301.551 68.2433 300.996 68.2848H299.425C298.94 68.2596 298.463 68.4088 298.083 68.7042C297.904 68.8486 297.762 69.0316 297.669 69.2388C297.575 69.446 297.533 69.6716 297.544 69.8978ZM298.255 62.7601C298.239 63.0017 298.277 63.2438 298.365 63.4701C298.453 63.6964 298.589 63.9016 298.766 64.0718C299.163 64.3959 299.672 64.5602 300.189 64.5314C300.445 64.5702 300.707 64.5502 300.953 64.4729C301.2 64.3956 301.425 64.2632 301.61 64.0861C301.795 63.9091 301.935 63.6923 302.02 63.453C302.104 63.2137 302.13 62.9585 302.096 62.7076C302.136 62.4457 302.112 62.1781 302.026 61.9271C301.939 61.676 301.793 61.4487 301.599 61.264C301.404 61.0793 301.168 60.9424 300.909 60.8649C300.649 60.7874 300.375 60.7713 300.108 60.8181C299.863 60.8087 299.618 60.8467 299.387 60.9299C299.157 61.0132 298.946 61.1401 298.766 61.3033C298.572 61.4935 298.421 61.7217 298.324 61.9727C298.227 62.2238 298.185 62.4921 298.202 62.7601H298.255Z" fill="#522367"/>
<path d="M312.034 68.4946V63.0357C312.074 62.4851 311.907 61.9392 311.564 61.5008C311.363 61.3176 311.126 61.1773 310.867 61.0888C310.608 61.0003 310.333 60.9655 310.059 60.9868C309.694 60.956 309.327 61.0046 308.983 61.1291C308.639 61.2535 308.328 61.4506 308.072 61.7064C307.59 62.4043 307.367 63.2424 307.44 64.0812V68.4905H306.098V56.5271H307.44V60.1489C307.45 60.5089 307.427 60.8691 307.373 61.2253H307.454C307.724 60.8166 308.106 60.4895 308.556 60.2805C309.06 60.0375 309.617 59.9159 310.18 59.9258C311.04 59.8646 311.89 60.1277 312.557 60.6609C312.846 60.9766 313.065 61.3468 313.201 61.7485C313.337 62.1503 313.388 62.575 313.349 62.9966V68.4946H312.034Z" fill="#522367"/>
<path d="M318.818 67.5882C319.042 67.6081 319.266 67.6081 319.49 67.5882C319.663 67.5683 319.833 67.5339 320 67.4854V68.4692C319.798 68.55 319.586 68.603 319.369 68.6265C319.126 68.672 318.879 68.6941 318.632 68.6923C316.967 68.6923 316.121 67.839 316.121 66.0677V61.055H314.883V60.4381L316.118 59.9128L316.669 58.1147H317.435V60.0567H319.933V61.0539H317.435V66.0667C317.407 66.4861 317.536 66.9012 317.798 67.2345C317.933 67.3595 318.094 67.4555 318.27 67.5164C318.446 67.5772 318.632 67.6017 318.818 67.5882Z" fill="#522367"/>
</g>
<defs>
<clipPath id="clip0_2672_56486">
<rect width="320" height="106.667" fill="white"/>
</clipPath>
</defs>
</svg>
