<svg width="117" height="31" viewBox="0 0 117 31" fill="none" xmlns="http://www.w3.org/2000/svg">
<path d="M8.82044 9.55123C5.78919 8.16702 4.2466 7.09237 4.2466 4.89642C4.2466 3.1954 5.44137 1.47135 8.1161 1.47135C11.1628 1.47135 12.2311 3.62853 12.8642 5.74694V5.82448L14.186 5.63911V5.54642C14.0515 4.60323 13.9331 3.82238 13.8301 3.14148C13.7061 2.29339 13.6007 1.59493 13.5201 0.976428V0.906763H13.4581C11.9174 0.444011 10.3205 0.184062 8.70945 0.133789C4.13562 0.133789 0.922714 2.60779 0.922714 6.1413C0.922714 9.79051 4.49957 11.4685 7.11912 12.6904C9.73867 13.9122 11.7326 15.0953 11.7326 17.407C11.7326 19.7186 10.1497 21.1337 7.56243 21.1337C3.60551 21.1337 2.02262 17.407 1.55575 15.8144V15.7217L0.25 16.0306V16.1155C0.457432 17.8636 0.793312 19.595 1.25504 21.2961V21.3361H1.30402L1.52537 21.4287C2.0738 21.6682 2.63979 21.8673 3.21862 22.0242C4.40288 22.3691 5.63107 22.5488 6.86678 22.5579C11.7413 22.5579 15.2872 19.8592 15.2872 16.1633C15.2872 12.4675 11.7103 10.844 8.83904 9.55244" fill="#522367"/>
<path d="M25.0347 19.7958C24.3552 20.098 23.6203 20.2628 22.874 20.2804C21.9402 20.2804 20.8403 19.7625 20.8403 17.3036V9.07899H24.5833C24.7154 9.01096 24.8289 8.91296 24.9143 8.79322C24.9996 8.67348 25.0543 8.53549 25.0738 8.39082C25.0944 8.25206 25.0828 8.11054 25.0398 7.97674C24.9969 7.84294 24.9237 7.72029 24.8258 7.61785H20.8242V3.05573L20.1831 2.93457L17.3899 5.25167V7.5712H15.8071L14.7388 8.63859L14.9762 9.11776H17.4054V18.4195C17.4054 21.0486 18.7428 22.4322 21.2911 22.4322C21.8304 22.3924 22.3556 22.2449 22.8343 21.999L25.5723 20.8238L25.1767 19.7571L25.0347 19.7958Z" fill="#522367"/>
<path d="M32.1888 15.505L33.0568 15.1415C33.745 14.8556 34.5839 14.5072 35.1301 14.2601V19.1929C34.3956 19.7757 33.4943 20.1215 32.5503 20.1828C32.2278 20.1913 31.907 20.1355 31.6073 20.0189C31.3077 19.9022 31.0355 19.7271 30.8075 19.5043C30.5794 19.2814 30.4002 19.0155 30.2808 18.7227C30.1614 18.43 30.1043 18.1165 30.113 17.8015C30.113 16.6263 30.9041 16.0695 32.1863 15.4819M40.9787 19.6188L40.8838 19.6727C40.503 19.8753 40.0774 19.984 39.6438 19.9895C38.8527 19.9895 38.4565 19.3401 38.4565 18.1571V12.2204C38.4565 10.2026 37.9419 8.9577 36.7205 8.05266C35.7847 7.44315 34.6796 7.1299 33.5553 7.15551C31.5647 7.62183 29.6664 8.40551 27.9367 9.47503C27.1456 9.95966 26.6707 10.3795 26.6707 10.9289C26.7381 11.3566 26.959 11.7469 27.2938 12.0302C27.6286 12.3135 28.0556 12.4713 28.4985 12.4755C28.7848 12.5019 29.0714 12.4265 29.3054 12.2632C29.5395 12.0998 29.7054 11.8594 29.7726 11.5862C29.9328 10.7944 30.2801 10.0501 30.7869 9.41264C30.9828 9.21678 31.2185 9.06328 31.4789 8.96206C31.7393 8.86084 32.0185 8.81416 32.2985 8.82503C34.0711 8.82503 35.1314 10.1474 35.1314 12.3507V12.9213C34.2212 13.5556 31.3642 14.4679 29.4731 15.0318C27.4153 15.6812 26.458 16.728 26.458 18.3255C26.4863 18.8942 26.6292 19.4518 26.8787 19.9664C27.1282 20.4809 27.4793 20.9422 27.9118 21.3238C28.3443 21.7054 28.8497 21.9997 29.3989 22.1899C29.9482 22.3801 30.5305 22.4624 31.1124 22.432C32.0542 22.432 33.5739 21.4888 34.9113 20.6613L35.2913 20.419C35.4585 20.9369 35.7571 21.4049 36.1593 21.7796C36.6917 22.1941 37.3465 22.4299 38.0268 22.452L41.3978 20.6813L40.9787 19.6188Z" fill="#522367"/>
<path d="M62.4121 13.1698C60.9402 12.6288 59.4286 11.8861 59.4286 10.4868C59.426 10.2064 59.4823 9.92837 59.594 9.67005C59.7058 9.41173 59.8706 9.17858 60.0784 8.98504C60.2861 8.7915 60.5323 8.64169 60.8017 8.54489C61.0711 8.4481 61.358 8.40637 61.6446 8.42231C63.7024 8.42231 64.8103 10.17 65.3405 11.6232V11.7081L66.5117 11.4373V11.3525C66.3488 10.15 66.0842 8.96288 65.7205 7.8032V7.76443C64.6458 7.34871 63.4971 7.14628 62.3415 7.16895C58.986 7.16895 56.5406 9.02445 56.5406 11.576C56.5406 14.2978 59.366 15.4421 61.2335 16.215C63.2833 17.0347 64.0825 17.8313 64.0825 19.0295C64.0706 19.3272 63.9974 19.6195 63.8674 19.889C63.7374 20.1585 63.5532 20.3996 63.3257 20.5981C63.0983 20.7965 62.8322 20.9481 62.5435 21.044C62.2548 21.1398 61.9493 21.1778 61.6452 21.1558C59.3183 21.1558 57.7831 18.975 57.1811 17.1043V17.0268L56.0254 17.1813V17.2661C56.0423 18.6318 56.2554 19.9885 56.6584 21.2963C57.9691 22.0409 59.4634 22.4205 60.9793 22.394C64.0973 22.394 67.2551 20.8014 67.2551 17.7549C67.2551 15.3736 65.3479 14.1808 62.507 13.1159" fill="#522367"/>
<path d="M82.996 18.2574V7.30127L82.6159 7.36185C82.0226 7.45453 81.1992 7.58599 80.2419 7.64777C79.1656 7.76893 77.8679 7.87191 76.8628 7.90281H76.7655V8.87205L78.1345 9.08105C79.2344 9.26642 79.527 9.3906 79.527 11.0759V18.6905C78.5366 19.5745 77.2516 20.0773 75.9105 20.1056C74.5254 20.1056 72.8873 19.4998 72.8873 16.6418V12.1802C72.8873 10.0461 72.8873 8.4995 72.9983 7.42485V7.30369L72.7057 7.35034C72.0565 7.44302 71.0676 7.59265 70.1258 7.68291H69.7538C68.8752 7.76772 68.0444 7.85313 67.332 7.87615H67.2793V8.82723L68.3476 9.04349C69.21 9.22159 69.4872 9.36031 69.4872 11.0074V17.4711C69.4872 20.6024 71.1965 22.3967 74.18 22.3967C75.224 22.3682 76.2419 22.0722 77.1319 21.5383C77.9584 21.1051 78.7518 20.6141 79.5059 20.0693V22.1798L79.8383 22.4348H79.886C80.622 22.2416 81.627 22.0017 82.6004 21.7776C83.7636 21.5225 84.737 21.3535 85.4971 21.2596H85.5839V20.1826H84.5392C83.2173 20.0899 82.9563 19.9196 82.9563 18.2883" fill="#522367"/>
<path d="M98.9346 8.94853C98.8614 8.41719 98.581 7.93399 98.152 7.59977C97.7229 7.26556 97.1783 7.10615 96.6318 7.15482C95.2548 7.15482 93.7829 8.29126 92.2794 10.5339V7.04639L92.1448 7.09303C90.3884 7.70849 88.5719 8.14634 86.724 8.3997H86.6447V9.35077H86.724C88.6628 9.59793 88.8451 9.68334 88.8451 11.6703V18.4974C88.8451 20.5771 88.576 20.7243 86.4711 20.9205H86.3843V21.98H95.3267V21.0108H95.2157C92.3748 20.8097 92.2955 20.6164 92.2955 18.5877V12.5905C92.9775 11.0439 94.0203 10.062 94.9547 10.062C95.2479 10.0584 95.5389 10.112 95.8106 10.2196C96.0824 10.3271 96.3295 10.4865 96.5376 10.6883C96.689 10.8081 96.8724 10.8828 97.0661 10.9033C97.2597 10.9238 97.4553 10.8893 97.6294 10.804C98.0189 10.6621 98.3559 10.4096 98.5971 10.0789C98.8384 9.74819 98.9727 9.3545 98.9829 8.94853" fill="#522367"/>
<path d="M107.44 12.3117C105.447 12.3814 103.547 12.4123 101.648 12.4123C102.144 10.0928 103.531 8.5462 105.201 8.5462C105.592 8.54252 105.979 8.61755 106.338 8.76659C106.698 8.91564 107.022 9.13551 107.29 9.41246C107.592 9.72021 107.828 10.0842 107.983 10.4826C108.138 10.8811 108.209 11.306 108.193 11.732C108.193 12.1185 108.09 12.2887 107.401 12.2887M110.836 18.2859C109.696 19.2683 108.232 19.8172 106.713 19.8325C104.141 19.8325 101.521 18 101.41 13.9176C105.626 13.7862 110.115 13.4615 110.764 13.3609C111.556 13.2525 111.738 12.8509 111.738 12.1936C111.738 9.47971 109.079 7.09839 106.048 7.09839H106.008C103.937 7.19001 101.98 8.05319 100.54 9.5106C99.745 10.2661 99.1145 11.1706 98.6862 12.1699C98.2578 13.1692 98.0403 14.2427 98.0467 15.3261C98.0198 16.2665 98.1911 17.2023 98.5498 18.0753C98.9085 18.9484 99.447 19.7401 100.132 20.4014C100.817 21.0626 101.634 21.5793 102.531 21.9193C103.429 22.2593 104.389 22.4154 105.351 22.378C105.905 22.378 108.818 22.2235 111.524 19.1152L111.579 19.0546L110.914 18.1963L110.836 18.2859Z" fill="#522367"/>
<path d="M56.84 8.63923V7.54883H49.987V8.63923H50.1054C51.2766 8.78643 51.8067 8.95605 51.997 9.25773C52.1874 9.55941 52.1 9.78355 51.9022 10.3403C51.1662 12.3508 49.7495 15.8686 48.7364 18.0724L45.5706 10.2579C45.3493 9.70116 45.3015 9.39948 45.4199 9.19836C45.5384 8.99725 45.9897 8.804 46.9315 8.6574H47.0183L46.9402 7.54883H39.0264V8.63923H39.1132C41.0123 8.86337 41.3527 9.24986 42.1202 10.9588C43.0385 12.8688 44.5891 16.5568 46.3859 21.0722C46.6008 21.5242 46.6264 22.0402 46.4572 22.5104C46.1559 23.2155 45.8015 23.8979 45.397 24.5518C44.309 26.4762 43.0264 28.2893 41.5684 29.9639L41.4023 30.1341H45.0269V30.0735C45.5731 28.6972 46.1981 27.3057 47.0686 25.3799C47.67 24.0472 48.3427 22.5328 49.1896 20.6173L49.6236 19.6123C51.6889 14.9036 52.7336 12.5065 53.596 10.96C54.5775 9.15051 54.9018 8.91849 56.7618 8.64044L56.84 8.63923Z" fill="#522367"/>
<path d="M115.948 9.33509L115.718 7.58741L115.132 9.33509H114.729L114.135 7.58741L113.914 9.33509H113.495L113.827 7.20093H114.397L114.935 8.91771L115.465 7.20093H116.051L116.375 9.33509H115.948ZM112.727 7.49473V9.33509H112.299V7.49473H111.635V7.20093H113.415V7.49473H112.727Z" fill="#522367"/>
</svg>
