<svg xmlns="http://www.w3.org/2000/svg" fill="none" viewBox="0 0.4 216 26.52">
<path d="M127.239 21.484H126.263L124.546 15.8026C124.461 15.5482 124.377 15.2302 124.271 14.8486C124.165 14.467 124.122 14.2338 124.112 14.1596C124.027 14.6684 123.889 15.2302 123.709 15.8344L122.045 21.484H121.07L118.812 13.0043H119.861L121.197 18.2405C121.387 18.9719 121.515 19.6396 121.599 20.2332C121.705 19.523 121.854 18.8341 122.066 18.1557L123.582 12.9937H124.631L126.232 18.1981C126.422 18.8023 126.571 19.47 126.698 20.2332C126.772 19.682 126.91 19.0143 127.111 18.2299L128.447 13.0043H129.496L127.228 21.484H127.239Z" fill="#522367"/>
<path d="M135.729 18.3041C135.729 19.3428 135.464 20.1484 134.945 20.7314C134.425 21.3144 133.705 21.6005 132.782 21.6005C132.21 21.6005 131.712 21.4628 131.267 21.1978C130.821 20.9328 130.482 20.5512 130.249 20.053C130.005 19.5548 129.889 18.9718 129.889 18.3041C129.889 17.2653 130.143 16.4597 130.662 15.8767C131.182 15.2938 131.903 15.0076 132.825 15.0076C133.747 15.0076 134.425 15.3044 134.945 15.8979C135.464 16.4915 135.729 17.2865 135.729 18.3041ZM130.885 18.3041C130.885 19.1202 131.044 19.735 131.373 20.159C131.701 20.583 132.178 20.795 132.804 20.795C133.429 20.795 133.917 20.583 134.235 20.159C134.563 19.735 134.722 19.1202 134.722 18.3041C134.722 17.4879 134.563 16.8837 134.235 16.4597C133.906 16.0357 133.429 15.8343 132.782 15.8343C132.136 15.8343 131.68 16.0463 131.351 16.4597C131.023 16.8731 130.874 17.4879 130.874 18.3147L130.885 18.3041Z" fill="#522367"/>
<path d="M140.106 15.0076C140.392 15.0076 140.646 15.0288 140.869 15.0818L140.731 15.9721C140.466 15.9191 140.233 15.8873 140.032 15.8873C139.512 15.8873 139.078 16.0993 138.707 16.5127C138.336 16.9261 138.155 17.4455 138.155 18.0709V21.484H137.191V15.1242H137.986L138.092 16.3007H138.134C138.367 15.8873 138.654 15.5693 138.982 15.3468C139.311 15.1242 139.682 15.0076 140.074 15.0076H140.106Z" fill="#522367"/>
<path d="M144.409 20.8055C144.579 20.8055 144.748 20.7949 144.907 20.7631C145.066 20.7313 145.193 20.7101 145.289 20.6889V21.4309C145.183 21.4839 145.034 21.5263 144.833 21.5581C144.632 21.5899 144.451 21.6111 144.282 21.6111C143.052 21.6111 142.437 20.9645 142.437 19.6714V15.8873H141.526V15.4209L142.437 15.0181L142.84 13.6614H143.402V15.1347H145.246V15.8873H143.402V19.629C143.402 20.0106 143.497 20.3074 143.678 20.5087C143.858 20.7101 144.112 20.8161 144.43 20.8161L144.409 20.8055Z" fill="#522367"/>
<path d="M151.013 21.4839V17.3713C151.013 16.8519 150.897 16.4703 150.664 16.2159C150.43 15.9615 150.059 15.8343 149.551 15.8343C148.883 15.8343 148.395 16.0145 148.088 16.3749C147.78 16.7353 147.632 17.3395 147.632 18.1662V21.4945H146.667V12.4636H147.632V15.1983C147.632 15.5269 147.621 15.8025 147.59 16.0145H147.643C147.833 15.7071 148.098 15.4633 148.448 15.2937C148.798 15.1135 149.201 15.0287 149.646 15.0287C150.42 15.0287 151.003 15.2089 151.395 15.5799C151.787 15.9509 151.978 16.5339 151.978 17.3395V21.4839H151.013Z" fill="#522367"/>
<path d="M161.369 20.6359H161.316C160.871 21.2824 160.203 21.6004 159.324 21.6004C158.497 21.6004 157.84 21.3142 157.384 20.7524C156.917 20.1801 156.695 19.3745 156.695 18.3251C156.695 17.2758 156.928 16.4596 157.394 15.8872C157.861 15.3042 158.507 15.018 159.334 15.018C160.161 15.018 160.86 15.336 161.316 15.9614H161.39L161.348 15.5056L161.327 15.0604V12.4741H162.291V21.505H161.507L161.38 20.6571L161.369 20.6359ZM159.44 20.7948C160.097 20.7948 160.574 20.6147 160.871 20.2543C161.168 19.8939 161.316 19.3215 161.316 18.5265V18.3251C161.316 17.4242 161.168 16.7776 160.871 16.396C160.574 16.0144 160.097 15.8236 159.44 15.8236C158.878 15.8236 158.444 16.0462 158.147 16.4808C157.85 16.9154 157.702 17.5408 157.702 18.3357C157.702 19.1307 157.85 19.7561 158.147 20.1801C158.444 20.6041 158.878 20.8054 159.461 20.8054L159.44 20.7948Z" fill="#522367"/>
<path d="M169.818 18.3041C169.818 19.3428 169.553 20.1484 169.033 20.7314C168.514 21.3144 167.793 21.6005 166.871 21.6005C166.299 21.6005 165.8 21.4628 165.355 21.1978C164.91 20.9328 164.571 20.5512 164.338 20.053C164.104 19.5548 163.977 18.9718 163.977 18.3041C163.977 17.2653 164.232 16.4597 164.751 15.8767C165.27 15.2938 165.991 15.0076 166.913 15.0076C167.836 15.0076 168.514 15.3044 169.033 15.8979C169.553 16.4915 169.818 17.2865 169.818 18.3041ZM164.974 18.3041C164.974 19.1202 165.133 19.735 165.461 20.159C165.79 20.583 166.267 20.795 166.892 20.795C167.518 20.795 168.005 20.583 168.323 20.159C168.652 19.735 168.811 19.1202 168.811 18.3041C168.811 17.4879 168.652 16.8837 168.323 16.4597C167.995 16.0357 167.518 15.8343 166.871 15.8343C166.224 15.8343 165.769 16.0463 165.44 16.4597C165.111 16.8731 164.963 17.4879 164.963 18.3147L164.974 18.3041Z" fill="#522367"/>
<path d="M171.417 13.4071C171.417 13.1845 171.47 13.0255 171.576 12.9195C171.682 12.8135 171.82 12.7605 171.979 12.7605C172.138 12.7605 172.265 12.8135 172.382 12.9195C172.498 13.0255 172.551 13.1845 172.551 13.3965C172.551 13.6085 172.498 13.7781 172.382 13.8841C172.265 13.9901 172.138 14.0431 171.979 14.0431C171.82 14.0431 171.682 13.9901 171.576 13.8841C171.47 13.7781 171.417 13.6191 171.417 13.3965V13.4071ZM172.466 21.4946H171.502V15.1348H172.466V21.4946Z" fill="#522367"/>
<path d="M178.858 21.4839V17.3712C178.858 16.8518 178.742 16.4702 178.509 16.2158C178.275 15.9614 177.904 15.8342 177.396 15.8342C176.728 15.8342 176.24 16.0144 175.933 16.3748C175.626 16.7352 175.467 17.3288 175.467 18.1556V21.4945H174.502V15.1347H175.286L175.445 16.0038H175.488C175.689 15.6858 175.965 15.4527 176.314 15.2725C176.664 15.0923 177.067 15.0181 177.502 15.0181C178.265 15.0181 178.848 15.1983 179.229 15.5692C179.622 15.9402 179.812 16.5338 179.812 17.3394V21.4839H178.848H178.858Z" fill="#522367"/>
<path d="M187.01 15.1242V15.7283L185.833 15.8661C185.939 16.0039 186.035 16.1735 186.12 16.3961C186.204 16.6187 186.247 16.8625 186.247 17.1381C186.247 17.7635 186.035 18.2617 185.611 18.6326C185.187 19.0036 184.604 19.1944 183.862 19.1944C183.671 19.1944 183.491 19.1838 183.332 19.152C182.918 19.364 182.717 19.6396 182.717 19.9682C182.717 20.1378 182.791 20.2756 182.929 20.3498C183.067 20.424 183.321 20.477 183.671 20.477H184.795C185.484 20.477 186.014 20.6254 186.385 20.9116C186.756 21.1978 186.936 21.6217 186.936 22.1729C186.936 22.8725 186.65 23.4131 186.088 23.7841C185.526 24.1551 184.699 24.3353 183.618 24.3353C182.791 24.3353 182.145 24.1763 181.689 23.8689C181.244 23.5615 181.01 23.1269 181.01 22.5545C181.01 22.1729 181.138 21.8337 181.381 21.5476C181.625 21.2614 181.975 21.0706 182.431 20.9752C182.272 20.901 182.134 20.7844 182.017 20.636C181.911 20.477 181.848 20.2968 181.848 20.0954C181.848 19.8622 181.911 19.6608 182.039 19.4912C182.166 19.3216 182.357 19.152 182.622 18.9824C182.293 18.8446 182.028 18.622 181.816 18.2935C181.604 17.9649 181.509 17.5939 181.509 17.1805C181.509 16.4809 181.721 15.9509 182.134 15.5693C182.547 15.1878 183.141 15.0076 183.915 15.0076C184.243 15.0076 184.551 15.05 184.816 15.1242H187.021H187.01ZM181.933 22.5545C181.933 22.8937 182.081 23.1587 182.367 23.3389C182.653 23.5191 183.077 23.6039 183.618 23.6039C184.424 23.6039 185.028 23.4873 185.409 23.2435C185.802 22.9997 185.992 22.6711 185.992 22.2577C185.992 21.9185 185.886 21.6747 185.674 21.537C185.462 21.3992 185.06 21.3356 184.477 21.3356H183.321C182.887 21.3356 182.547 21.4416 182.304 21.6535C182.06 21.8655 181.943 22.1623 181.943 22.5545H181.933ZM182.452 17.1593C182.452 17.6045 182.579 17.9437 182.834 18.1663C183.088 18.3995 183.438 18.5055 183.883 18.5055C184.826 18.5055 185.293 18.0497 185.293 17.1381C185.293 16.2265 184.816 15.7071 183.862 15.7071C183.406 15.7071 183.056 15.8237 182.812 16.0675C182.569 16.3113 182.452 16.6717 182.452 17.1487V17.1593Z" fill="#522367"/>
<path d="M194.302 15.0076C194.589 15.0076 194.843 15.0288 195.066 15.0818L194.928 15.9721C194.663 15.9191 194.43 15.8873 194.228 15.8873C193.709 15.8873 193.274 16.0993 192.903 16.5127C192.532 16.9261 192.352 17.4455 192.352 18.0709V21.484H191.387V15.1242H192.182L192.288 16.3007H192.331C192.564 15.8873 192.85 15.5693 193.179 15.3468C193.507 15.1242 193.878 15.0076 194.271 15.0076H194.302Z" fill="#522367"/>
<path d="M196.168 13.4071C196.168 13.1845 196.221 13.0255 196.327 12.9195C196.433 12.8135 196.571 12.7605 196.73 12.7605C196.889 12.7605 197.016 12.8135 197.132 12.9195C197.249 13.0255 197.302 13.1845 197.302 13.3965C197.302 13.6085 197.249 13.7781 197.132 13.8841C197.016 13.9901 196.889 14.0431 196.73 14.0431C196.571 14.0431 196.433 13.9901 196.327 13.8841C196.221 13.7781 196.168 13.6191 196.168 13.3965V13.4071ZM197.217 21.4946H196.253V15.1348H197.217V21.4946Z" fill="#522367"/>
<path d="M204.468 15.1242V15.7283L203.291 15.8661C203.397 16.0039 203.492 16.1735 203.577 16.3961C203.662 16.6187 203.704 16.8625 203.704 17.1381C203.704 17.7635 203.492 18.2617 203.069 18.6326C202.645 19.0036 202.062 19.1944 201.32 19.1944C201.129 19.1944 200.949 19.1838 200.79 19.152C200.376 19.364 200.175 19.6396 200.175 19.9682C200.175 20.1378 200.249 20.2756 200.387 20.3498C200.525 20.424 200.779 20.477 201.129 20.477H202.252C202.941 20.477 203.471 20.6254 203.842 20.9116C204.213 21.1978 204.393 21.6217 204.393 22.1729C204.393 22.8725 204.107 23.4131 203.545 23.7841C202.984 24.1551 202.157 24.3353 201.076 24.3353C200.249 24.3353 199.602 24.1763 199.147 23.8689C198.701 23.5615 198.468 23.1269 198.468 22.5545C198.468 22.1729 198.595 21.8337 198.839 21.5476C199.083 21.2614 199.433 21.0706 199.889 20.9752C199.73 20.901 199.592 20.7844 199.475 20.636C199.369 20.477 199.306 20.2968 199.306 20.0954C199.306 19.8622 199.369 19.6608 199.496 19.4912C199.624 19.3216 199.814 19.152 200.079 18.9824C199.751 18.8446 199.486 18.622 199.274 18.2935C199.062 17.9649 198.966 17.5939 198.966 17.1805C198.966 16.4809 199.178 15.9509 199.592 15.5693C200.005 15.1878 200.599 15.0076 201.373 15.0076C201.701 15.0076 202.009 15.05 202.274 15.1242H204.478H204.468ZM199.39 22.5545C199.39 22.8937 199.539 23.1587 199.825 23.3389C200.111 23.5191 200.535 23.6039 201.076 23.6039C201.881 23.6039 202.486 23.4873 202.867 23.2435C203.259 22.9997 203.45 22.6711 203.45 22.2577C203.45 21.9185 203.344 21.6747 203.132 21.537C202.92 21.3992 202.517 21.3356 201.934 21.3356H200.779C200.344 21.3356 200.005 21.4416 199.761 21.6535C199.518 21.8655 199.401 22.1623 199.401 22.5545H199.39ZM199.91 17.1593C199.91 17.6045 200.037 17.9437 200.291 18.1663C200.546 18.3889 200.896 18.5055 201.341 18.5055C202.284 18.5055 202.751 18.0497 202.751 17.1381C202.751 16.2265 202.274 15.7071 201.32 15.7071C200.864 15.7071 200.514 15.8237 200.27 16.0675C200.026 16.3113 199.91 16.6717 199.91 17.1487V17.1593Z" fill="#522367"/>
<path d="M210.127 21.4839V17.3713C210.127 16.8519 210.011 16.4703 209.777 16.2159C209.544 15.9615 209.173 15.8343 208.664 15.8343C207.997 15.8343 207.509 16.0145 207.202 16.3749C206.894 16.7353 206.746 17.3395 206.746 18.1662V21.4945H205.781V12.4636H206.746V15.1983C206.746 15.5269 206.735 15.8025 206.703 16.0145H206.756C206.947 15.7071 207.212 15.4633 207.562 15.2937C207.912 15.1135 208.315 15.0287 208.76 15.0287C209.534 15.0287 210.117 15.2089 210.509 15.5799C210.901 15.9509 211.092 16.5339 211.092 17.3395V21.4839H210.127Z" fill="#522367"/>
<path d="M215.12 20.8055C215.29 20.8055 215.46 20.7949 215.619 20.7631C215.778 20.7313 215.905 20.7101 216 20.6889V21.4309C215.894 21.4839 215.746 21.5263 215.544 21.5581C215.343 21.5899 215.163 21.6111 214.993 21.6111C213.764 21.6111 213.149 20.9645 213.149 19.6714V15.8873H212.237V15.4209L213.149 15.0181L213.552 13.6614H214.113V15.1347H215.958V15.8873H214.113V19.629C214.113 20.0106 214.209 20.3074 214.389 20.5087C214.569 20.7101 214.824 20.8161 215.142 20.8161L215.12 20.8055Z" fill="#522367"/>
<path d="M8.11768 9.35636H8.10341C5.22147 8.03666 3.75197 7.01657 3.75197 4.92646C3.75197 3.30716 4.8862 1.66645 7.43286 1.66645C10.2149 1.66645 11.285 3.62103 11.8984 5.56134C11.9412 5.70401 12.0839 5.78961 12.2266 5.76821L12.9043 5.67548C13.0683 5.65408 13.1825 5.49714 13.1611 5.33307C13.0541 4.55552 12.9542 3.83504 12.8686 3.25722C12.7759 2.63661 12.6475 1.71639 12.5975 1.33118C12.5833 1.21704 12.4977 1.12431 12.3906 1.09577C10.9782 0.689165 9.46591 0.446626 7.99641 0.403825C3.64497 0.396691 0.591828 2.75074 0.591828 6.11062C0.591828 9.4705 3.99451 11.1754 6.4841 12.3382C8.9737 13.5009 10.8712 14.628 10.8712 16.8251C10.8712 19.0222 9.36604 20.3705 6.90498 20.3705C3.3525 20.3705 1.79026 17.1319 1.25524 15.4983C1.20531 15.3485 1.04837 15.2558 0.898569 15.2914L0.235153 15.4484C0.0782159 15.484 -0.0287867 15.641 0.00688081 15.7979C0.156684 16.5469 0.741632 19.65 0.884302 20.3847C0.905703 20.4846 0.962771 20.5631 1.06264 20.6059C1.57625 20.8199 2.28247 21.0767 2.78181 21.2194C3.90891 21.5475 5.0788 21.7187 6.2487 21.7258C10.8855 21.7258 14.2596 19.1578 14.2596 15.641C14.2596 12.1242 10.8569 10.5833 8.12481 9.35636H8.11768Z" fill="#522367"/>
<path d="M23.7692 19.3505C23.7121 19.1936 23.5338 19.1151 23.3769 19.1722C22.7848 19.3933 22.0857 19.536 21.4722 19.5502C20.5877 19.5502 19.539 19.058 19.539 16.7182V8.8928H22.421C22.4994 8.8928 22.5779 8.86426 22.635 8.80719C22.7848 8.64312 23.0772 8.29358 23.3126 8.00111C23.4696 7.80137 23.334 7.5089 23.0772 7.5089H19.5248V3.72101C19.5248 3.47848 19.2608 3.33581 19.0611 3.46421L16.4003 5.16198C16.3147 5.21905 16.2576 5.31178 16.2576 5.41879V7.45896H14.888C14.8024 7.45896 14.7168 7.49463 14.6597 7.55883L13.8964 8.42199C13.7252 8.61459 13.8608 8.92846 14.1247 8.92846H16.2719V17.774C16.2719 20.2779 17.5416 21.5904 19.967 21.5904C20.4806 21.5547 21.2796 21.4549 21.7575 21.2694C22.6492 20.9127 23.4625 20.4277 23.8334 20.1922C23.9547 20.1138 24.0046 19.964 23.9547 19.8284L23.7692 19.3362V19.3505Z" fill="#522367"/>
<path d="M38.8049 19.2292C38.7407 19.0723 38.5695 18.9938 38.4197 19.058C38.1058 19.1864 37.7348 19.2791 37.421 19.2863C36.6719 19.2863 36.2939 18.6657 36.2939 17.5457V11.896C36.2939 9.97706 35.8017 8.7929 34.646 7.92975C33.7543 7.35194 32.7057 7.07373 31.6357 7.07373C26.6922 7.07373 25.2869 9.91999 25.2869 10.6547C25.2869 11.7604 26.0716 12.1385 26.8277 12.1385C27.0988 12.1385 27.3699 12.0886 27.5981 11.9388C27.8193 11.7818 27.9762 11.5536 28.0404 11.2968C28.1902 10.5406 28.4755 8.50043 30.4444 8.50043C32.7129 8.50043 33.1409 9.93426 33.1409 12.0244V12.5665C32.2777 13.1729 29.5598 14.036 27.7622 14.571C25.8076 15.1916 24.8945 16.1832 24.8945 17.7026C24.9231 18.2448 25.0586 18.7727 25.294 19.2649C25.5294 19.7571 25.8647 20.1922 26.2784 20.556C26.6922 20.9198 27.1701 21.198 27.6909 21.3764C28.2116 21.5547 28.768 21.6332 29.3173 21.6047C30.5799 21.6261 33.2907 19.6929 33.2907 19.6929C33.4476 20.1851 33.7329 20.6274 34.1182 20.984C34.6246 21.3764 35.2452 21.6689 35.8944 21.6261C37.8704 21.4834 38.7549 20.4562 39.0189 20.0781C39.0759 19.9996 39.0831 19.8926 39.0474 19.7999L38.8191 19.2292H38.8049ZM33.1266 18.3732C33.1266 18.4731 33.0838 18.5658 33.0053 18.6229C32.3276 19.1222 31.5216 19.4147 30.6727 19.4717C30.3659 19.4789 30.0592 19.4289 29.7738 19.3148C29.4885 19.2007 29.2317 19.0366 29.0106 18.8226C28.7966 18.6086 28.6254 18.3589 28.5112 18.0807C28.3971 17.8025 28.34 17.5029 28.3543 17.2033C28.3543 16.0833 29.1033 15.5555 30.3231 14.999V15.0204L31.1506 14.678C31.65 14.4712 32.2278 14.2286 32.7057 14.0218C32.9055 13.9362 33.1266 14.086 33.1266 14.3V18.3732Z" fill="#522367"/>
<path d="M59.0714 12.7945C57.6732 12.2809 56.2323 11.5747 56.2323 10.2407C56.2323 9.97679 56.2822 9.71285 56.3892 9.46318C56.4962 9.22064 56.6531 8.99237 56.8529 8.81403C57.0526 8.62856 57.288 8.48589 57.5377 8.39315C57.7945 8.30042 58.0656 8.26475 58.3366 8.27902C60.1842 8.27902 61.2471 9.81985 61.7893 11.1538C61.8463 11.2965 61.989 11.3678 62.1388 11.3393L62.7166 11.2037C62.8735 11.1681 62.9877 11.0183 62.952 10.8613C62.738 9.97679 62.3742 8.32895 62.2529 7.81534C62.2315 7.71547 62.1602 7.62987 62.0603 7.5942C61.083 7.23753 60.0487 7.06632 59.0072 7.08772C55.8185 7.08772 53.493 8.8497 53.493 11.2822C53.493 13.8717 56.1823 14.956 57.9586 15.6979C59.906 16.4754 60.6693 17.2316 60.6693 18.3729C60.655 18.6583 60.5908 18.9365 60.4624 19.1933C60.3412 19.4501 60.1628 19.6783 59.9488 19.8709C59.7348 20.0564 59.478 20.2062 59.2069 20.2918C58.9358 20.3846 58.6434 20.4202 58.3509 20.3988C56.2323 20.3988 54.7841 18.43 54.1564 16.7037C54.1065 16.5681 53.9781 16.4897 53.8354 16.5039L53.3146 16.5753C53.1434 16.5967 53.0293 16.7536 53.0578 16.9248C53.1648 17.6096 53.4359 19.286 53.5928 20.3988C53.6071 20.4844 53.6571 20.5558 53.7284 20.5986C54.9482 21.262 56.325 21.5972 57.716 21.5758C60.6836 21.5758 63.6868 20.0635 63.6868 17.1602C63.6868 14.8918 61.7821 13.8146 59.0785 12.8017L59.0714 12.7945Z" fill="#522367"/>
<path d="M92.3574 7.4944C91.9508 7.17339 91.43 7.02359 90.9093 7.07352C89.7679 7.07352 88.5552 7.89387 87.314 9.52031C87.1357 9.74858 86.7719 9.63445 86.7719 9.34197V7.35173C86.7719 7.15912 86.5864 7.00932 86.4009 7.05925L81.6928 8.22915C81.5359 8.24341 81.4217 8.37182 81.4217 8.52875V8.88543C81.4217 9.04237 81.5501 9.1779 81.7071 9.19217C83.2907 9.33484 83.519 9.57738 83.519 11.3679V17.8594C83.519 19.7426 83.2122 20.3704 81.4503 20.5844C81.3005 20.6058 81.1792 20.727 81.1792 20.884V21.2906C81.1792 21.4689 81.329 21.6044 81.5073 21.5902H89.3542C89.5325 21.6044 89.6823 21.4618 89.6823 21.2834V20.9767C89.6823 20.8198 89.5539 20.6842 89.3899 20.67C86.9645 20.5344 86.7933 20.2419 86.7933 18.3872V12.3024C86.7933 12.2596 86.8004 12.2096 86.8218 12.1668C87.471 10.733 88.4482 9.82705 89.3257 9.82705C89.6039 9.82705 89.8821 9.87698 90.1389 9.97685C90.3957 10.0767 90.6311 10.2337 90.8308 10.4191C90.9735 10.5333 91.1518 10.6046 91.3373 10.626C91.5228 10.6474 91.7083 10.6117 91.8723 10.5333C92.2433 10.3977 92.5643 10.1552 92.7926 9.84132C93.0208 9.52744 93.0993 9.14937 93.1136 8.76416C93.0422 8.25768 92.7783 7.80114 92.3717 7.48013L92.3574 7.4944Z" fill="#522367"/>
<path d="M77.9044 18.6298C77.9044 18.266 77.9044 18.1019 77.9044 17.6882L77.9401 7.7512C77.9401 7.57286 77.7831 7.43019 77.6048 7.45159L72.326 7.47299C72.1477 7.48013 72.0121 7.60853 72.0121 7.77973V8.07221C72.0121 8.07221 72.005 8.27908 72.0549 8.37181C72.1049 8.46455 72.3688 8.45028 72.3688 8.45028L73.3104 8.59295C74.359 8.77129 74.6372 9.20643 74.6372 10.8115V18.052C73.6956 18.8937 73.1891 19.3717 71.9122 19.4002C70.5925 19.4002 69.0374 18.8224 69.0374 16.1045V11.8601C69.0374 10.2693 69.0232 8.53588 69.0232 7.7726C69.0232 7.59426 68.8662 7.45159 68.6879 7.47299L64.0226 7.45873C63.8514 7.45873 63.7087 7.58713 63.7087 7.75833C63.7087 7.75833 63.6516 8.25768 63.7087 8.35041C63.7729 8.45742 64.7217 8.55728 64.7217 8.55728C65.542 8.72849 65.806 9.18503 65.806 10.7473V16.8963C65.806 19.871 67.4324 21.583 70.2715 21.583C71.2631 21.5545 72.219 21.2478 73.0821 20.7698C73.8526 20.3347 74.1094 20.0351 74.623 19.3717V19.7783C74.623 20.8055 75.4576 21.633 76.4777 21.633H79.7662C79.9303 21.633 80.073 21.4974 80.073 21.3262V20.8982C80.073 20.7342 79.9374 20.6058 79.7734 20.5986C78.0328 20.5059 77.9044 19.5429 77.9044 18.6369V18.6298Z" fill="#522367"/>
<path d="M100.496 19.1293C98.1139 19.1293 95.6956 17.4814 95.4674 13.8148C95.4602 13.6436 95.5958 13.4938 95.767 13.4938C99.6833 13.3654 103.749 13.0658 104.356 12.9731C105.105 12.8732 105.283 12.488 105.283 11.8602C105.283 9.27792 102.751 7.0166 99.8687 7.0166H99.8331C97.8642 7.1022 96.0024 7.92256 94.6327 9.31359C93.8766 10.0341 93.2774 10.8901 92.8708 11.846C92.4641 12.7947 92.2573 13.8148 92.2644 14.8492C92.2359 15.7409 92.3999 16.6325 92.7424 17.4672C93.0848 18.2947 93.5984 19.0508 94.2475 19.6786C94.8967 20.3063 95.6742 20.7985 96.5303 21.1195C97.3863 21.4405 98.2994 21.5903 99.2124 21.5547C99.7261 21.5547 102.437 21.3621 104.962 18.5871C105.062 18.4801 105.069 18.3089 104.976 18.1877C104.976 18.1877 104.784 17.8381 104.662 17.7168C104.577 17.6312 104.434 17.6312 104.341 17.7168C103.343 18.5729 101.873 19.1221 100.504 19.1364L100.496 19.1293ZM99.0555 8.39337C99.4265 8.39337 99.7974 8.4647 100.14 8.60024C100.482 8.74291 100.789 8.94978 101.046 9.21372C101.331 9.50619 101.559 9.85573 101.702 10.2338C101.852 10.6119 101.916 11.0185 101.902 11.4251C101.902 11.796 101.838 11.9744 101.188 11.9744C99.4265 12.0386 97.7429 12.0671 96.0666 12.0671C95.8668 12.0671 95.717 11.8816 95.767 11.689C96.302 9.69879 97.5575 8.39337 99.0555 8.39337Z" fill="#522367"/>
<path d="M53.4726 7.45171H47.5589C47.1666 7.44458 47.2665 7.97959 47.2522 8.22213C47.2522 8.37193 47.3663 8.50034 47.5233 8.52174C48.472 8.65727 48.9999 8.81421 49.164 9.07815C49.3423 9.36349 49.2638 9.57749 49.0712 10.1054C48.3721 12.0171 46.8884 15.0203 45.9182 17.1176L43.0434 10.0269C42.8294 9.49903 42.7866 9.21369 42.9007 9.02108C43.0006 8.84988 43.4358 8.61447 44.1705 8.46467C44.3132 8.43614 44.4202 8.31487 44.4202 8.1722C44.4202 8.05093 44.4202 8.1722 44.4202 7.79412C44.4202 7.61578 44.2632 7.47311 44.0849 7.49451L37.1155 7.45885C36.7231 7.45885 36.823 7.97959 36.8087 8.22926C36.8087 8.37907 36.9229 8.50747 37.0798 8.52887C38.6634 8.75001 39.0629 9.15662 39.7549 10.6975C40.6252 12.5165 42.2373 16.2402 43.9779 20.5488C44.092 20.8341 41.3813 25.5565 40.6109 26.4767C40.4682 26.6479 40.6537 26.919 40.882 26.919H43.1647C43.286 26.919 43.4001 26.8477 43.4429 26.7335C44.4131 24.4152 45.7042 21.7258 46.8884 18.9295C48.8501 14.4497 49.8488 12.1741 50.6691 10.6975C51.5537 9.06388 51.946 8.77854 53.494 8.52887C53.8507 8.4932 53.7365 7.98673 53.7508 7.75132C53.7508 7.58725 53.6153 7.44458 53.4441 7.44458L53.4726 7.45171Z" fill="#522367"/>
<path d="M109.279 9.1495L109.058 7.4874L108.501 9.1495H108.116L107.553 7.4874L107.346 9.1495H106.946L107.26 7.11646H107.802L108.316 8.75002L108.822 7.11646H109.379L109.686 9.1495H109.279ZM106.219 7.40179V9.1495H105.812V7.40179H105.177V7.12359H106.868V7.40179H106.212H106.219Z" fill="#522367"/>
</svg>